<svg width="46" height="53" viewBox="0 0 46 53" fill="none" xmlns="http://www.w3.org/2000/svg">
<g id="Group 90">
<path id="Vector" d="M45.4148 39.75C45.7757 39.1098 46 38.3886 46 37.7409V15.259C46 14.6113 45.7759 13.8902 45.4148 13.2501L23 26.5001L45.4148 39.75Z" fill="#7F3A86"/>
<path id="Vector_2" d="M24.9923 52.5143L44.0087 41.2733C44.5565 40.9495 45.0545 40.3903 45.4154 39.7501L23.0005 26.5001L0.585815 39.7501C0.946762 40.3903 1.44479 40.9497 1.99244 41.2733L21.0087 52.5143C22.1041 53.162 23.897 53.162 24.9923 52.5143Z" fill="#662579"/>
<path id="Vector_3" d="M45.4148 13.2499C45.0539 12.6097 44.5558 12.0505 44.0082 11.7267L24.9918 0.485746C23.8964 -0.161915 22.1036 -0.161915 21.0082 0.485746L1.99184 11.7267C0.896252 12.3742 0 13.9638 0 15.2589V37.741C0 38.3885 0.224135 39.1099 0.585215 39.7501L23 26.5L45.4148 13.2499Z" fill="#9A5196"/>
<path id="Vector_4" d="M23.0738 41.6429C14.5784 41.6429 7.66669 34.8498 7.66669 26.5001C7.66669 18.1503 14.5784 11.3572 23.0738 11.3572C28.4545 11.3572 33.4792 14.1505 36.2614 18.667L29.6633 22.5752C28.2693 20.3218 25.7598 18.9286 23.0738 18.9286C18.8259 18.9286 15.3703 22.3252 15.3703 26.5001C15.3703 30.675 18.8259 34.0715 23.0738 34.0715C25.7527 34.0715 28.2557 32.6861 29.6522 30.4433L36.2643 34.3287C33.4827 38.8479 28.4562 41.6429 23.0738 41.6429Z" fill="white"/>
<path id="Vector_5" fill-rule="evenodd" clip-rule="evenodd" d="M40.2502 20.8214V22.7094H36.4165V20.8214H34.5002V22.7094H32.5833V24.6071H34.5002V28.383H32.5833V30.2857H34.5002V32.1786H36.4165L36.4166 30.2857H40.2502V32.1786H42.1665V30.2857H44.0833V28.3929H42.1665V24.6071H44.0833V22.7094H42.1665V20.8214H40.2502ZM40.2502 28.3929V24.6071H36.4165V28.383L40.2502 28.3929Z" fill="white"/>
</g>
</svg>
