<svg width="27" height="42" viewBox="0 0 27 42" fill="none" xmlns="http://www.w3.org/2000/svg">
<path id="Vector" d="M22.5 0H4.5C3.30653 0 2.16193 0.474106 1.31802 1.31802C0.474106 2.16193 0 3.30653 0 4.5V37.5C0 38.6935 0.474106 39.8381 1.31802 40.682C2.16193 41.5259 3.30653 42 4.5 42H22.5C23.6935 42 24.8381 41.5259 25.682 40.682C26.5259 39.8381 27 38.6935 27 37.5V4.5C27 3.30653 26.5259 2.16193 25.682 1.31802C24.8381 0.474106 23.6935 0 22.5 0ZM24 37.5C24 37.8978 23.842 38.2794 23.5607 38.5607C23.2794 38.842 22.8978 39 22.5 39H4.5C4.10218 39 3.72064 38.842 3.43934 38.5607C3.15804 38.2794 3 37.8978 3 37.5V4.5C3 4.10218 3.15804 3.72064 3.43934 3.43934C3.72064 3.15804 4.10218 3 4.5 3H22.5C22.8978 3 23.2794 3.15804 23.5607 3.43934C23.842 3.72064 24 4.10218 24 4.5V37.5ZM21 7.5C21 7.89782 20.842 8.27936 20.5607 8.56066C20.2794 8.84196 19.8978 9 19.5 9H7.5C7.10218 9 6.72064 8.84196 6.43934 8.56066C6.15804 8.27936 6 7.89782 6 7.5C6 7.10218 6.15804 6.72064 6.43934 6.43934C6.72064 6.15804 7.10218 6 7.5 6H19.5C19.8978 6 20.2794 6.15804 20.5607 6.43934C20.842 6.72064 21 7.10218 21 7.5Z" fill="#203281"/>
</svg>
