<svg width="45" height="43" viewBox="0 0 45 43" fill="none" xmlns="http://www.w3.org/2000/svg">
<g id="Group 91">
<path id="Vector" d="M38.25 0.106812H6.75C3.02208 0.106812 0 2.9674 0 6.49612V36.3129C0 39.8416 3.02208 42.7022 6.75 42.7022H38.25C41.9779 42.7022 45 39.8416 45 36.3129V6.49612C45 2.9674 41.9779 0.106812 38.25 0.106812Z" fill="#F7DF1E"/>
<path id="Vector_2" d="M28.4766 30.8887C29.3555 32.303 30.5859 33.3014 32.6074 33.3014C34.3652 33.3014 35.5078 32.4694 35.5078 31.3047C35.5078 29.9736 34.3652 29.4744 32.4316 28.6425L31.377 28.2265C28.3008 26.9786 26.2793 25.4811 26.2793 22.2365C26.2793 19.2415 28.6523 16.9121 32.4316 16.9121C35.1562 16.9121 37.0898 17.8272 38.4082 20.1567L35.1562 22.1533C34.4531 20.9054 33.6621 20.4063 32.4316 20.4063C31.2012 20.4063 30.4102 21.155 30.4102 22.1533C30.4102 23.3181 31.2012 23.8172 33.0469 24.566L34.1016 24.9819C37.7051 26.4794 39.7266 27.8937 39.7266 31.3047C39.7266 34.8821 36.7383 36.8787 32.6953 36.8787C28.7402 36.8787 26.1914 35.1316 24.9609 32.8022L28.4766 30.8887ZM13.5352 31.2215C14.2383 32.303 14.7656 33.3014 16.2598 33.3014C17.666 33.3014 18.5449 32.8022 18.5449 30.8055V16.9953H22.7637V30.6391C22.7637 34.7989 20.2148 36.6291 16.4355 36.6291C13.0078 36.6291 11.0742 34.9652 10.1074 32.9686L13.5352 31.2215Z" fill="black"/>
</g>
</svg>
