<svg width="44" height="46" viewBox="0 0 44 46" fill="none" xmlns="http://www.w3.org/2000/svg">
<g id="Group">
<path id="Vector" d="M27.5765 37.3751C27.9202 37.8942 28.1302 37.8543 28.3975 37.7345C28.6648 37.6146 42.4149 32.7631 42.835 32.6035C43.2551 32.4438 43.1215 32.304 42.988 32.0842C42.8543 31.8646 38.2709 25.356 38.0416 24.9767C37.8125 24.5973 37.6978 24.6771 37.335 24.797L22.7592 28.7621C22.7592 28.7621 27.2327 36.8558 27.5765 37.3751ZM44 30.7473V23.1289C42.3601 23.5857 40.2859 24.1632 39.4671 24.3909C40.7024 26.1188 42.6336 28.8229 44 30.7473ZM39.453 15.0078C39.2284 15.0611 34.2543 16.0009 33.9479 16.0435C33.6416 16.0863 33.7437 16.2678 33.8662 16.4492L38.2434 22.7281C38.2434 22.7281 43.5954 21.34 43.9223 21.2652C43.9488 21.2591 43.9747 21.2526 44 21.246V20.4146C43.0272 19.125 40.3769 15.6137 40.1477 15.2856C39.8721 14.8904 39.6778 14.9546 39.453 15.0078Z" fill="#F35045"/>
<path id="Vector_2" d="M8.15649 5.14517C9.23363 5.09396 9.33195 5.3502 9.80512 6.08386L21.6937 26.8633L36.6424 23.1195C35.8141 21.892 32.0542 16.319 31.6906 15.7872C31.2823 15.1892 31.701 14.9115 32.3649 14.7942C33.0287 14.6767 38.7484 13.673 39.2385 13.5982C39.7289 13.5235 40.1172 13.342 40.9136 14.3457C41.3213 14.8593 42.7032 16.6583 44 18.3447V8.625C44 6.24917 43.193 4.21763 41.5795 2.53054C39.9657 0.843633 38.0225 0 35.75 0H8.24999C5.97746 0 4.03424 0.843633 2.42051 2.53054C1.49496 3.49852 0.836165 4.5797 0.441711 5.77408C3.13637 5.54264 7.40265 5.18111 8.15649 5.14517Z" fill="#F35045"/>
<path id="Vector_3" d="M28.9247 40.1716C27.6641 40.5708 27.0988 40.769 26.2778 39.571C25.6628 38.6739 22.3372 32.4118 20.7066 29.3247C17.6206 30.1696 11.973 31.7106 10.3443 32.1198C8.7548 32.519 8.07589 31.5227 7.81481 30.9087C7.63177 30.4778 2.97155 19.9736 0 13.2339V37.3749C0 39.7509 0.806953 41.7821 2.42052 43.4694C4.03425 45.1563 5.97747 45.9999 8.25 45.9999H35.75C38.0225 45.9999 39.9658 45.1563 41.5795 43.4694C43.193 41.7821 44 39.7509 44 37.3749V34.5393C40.6244 35.8301 29.7739 39.9026 28.9247 40.1716Z" fill="#F35045"/>
<path id="Vector_4" d="M10.3833 29.7001C10.8302 29.5932 19.2027 27.4984 19.3815 27.4584C19.5602 27.4183 19.6751 27.3115 19.4836 26.9648C19.2921 26.618 8.32305 6.82358 8.32305 6.82358C8.22182 6.64191 8.25069 6.58136 7.97552 6.59645C7.73026 6.61011 1.52368 7.18906 0.0868027 7.31449C0.044388 7.63212 0.0179402 7.95187 0.00756836 8.2724C1.46627 11.3945 9.83865 29.4462 9.88557 29.5932C9.93661 29.7535 9.93661 29.8069 10.3833 29.7001Z" fill="#F35045"/>
</g>
</svg>
