<svg width="47" height="64" viewBox="0 0 47 64" fill="none" xmlns="http://www.w3.org/2000/svg">
<g id="Group">
<path id="Vector" d="M45.332 9.86663H39.8563V6.82677C39.8563 6.20819 39.3441 5.70681 38.7121 5.70681H30.434C29.7278 2.43361 26.7523 0 23.2382 0C19.724 0 16.7486 2.43361 16.0424 5.70678H7.7642C7.13225 5.70678 6.62001 6.20815 6.62001 6.82673V9.86659H1.14418C0.512241 9.86659 0 10.368 0 10.9866V62.88C0 63.4986 0.512241 64 1.14418 64H45.332C45.9639 64 46.4762 63.4986 46.4762 62.88V10.9866C46.4762 10.368 45.9639 9.86663 45.332 9.86663ZM8.90842 7.94676H17.0396C17.6447 7.94676 18.145 7.48566 18.1817 6.89457C18.3432 4.28454 20.5642 2.24001 23.2382 2.24001C25.9121 2.24001 28.1331 4.28454 28.2946 6.89457C28.3314 7.48566 28.8316 7.94676 29.4368 7.94676H37.5679V9.86663V12.1066V14.7733H8.90842V12.1066V9.86663V7.94676ZM44.1878 61.76H2.28844V12.1066H6.62001V15.8933C6.62001 16.512 7.13225 17.0133 7.7642 17.0133H38.7121C39.3441 17.0133 39.8563 16.5119 39.8563 15.8933V12.1066H44.1878V61.76Z" fill="#203281"/>
<path id="Vector_2" d="M14.6303 24.301L9.92281 28.9092L7.8178 26.8486C7.37089 26.4114 6.64649 26.4114 6.19954 26.8486C5.75274 27.286 5.75274 27.9951 6.19954 28.4326L9.11366 31.2851C9.33711 31.5037 9.62991 31.6131 9.92281 31.6131C10.2157 31.6131 10.5085 31.5037 10.732 31.2851L16.2486 25.8851C16.6954 25.4476 16.6954 24.7386 16.2486 24.3011C15.8017 23.8638 15.0773 23.8638 14.6303 24.301Z" fill="#203281"/>
<path id="Vector_3" d="M20.5067 26.6731C19.8747 26.6731 19.3625 27.1745 19.3625 27.7931C19.3625 28.4117 19.8747 28.9131 20.5067 28.9131H39.4677C40.0997 28.9131 40.6119 28.4117 40.6119 27.7931C40.6119 27.1745 40.0997 26.6731 39.4677 26.6731H20.5067Z" fill="#203281"/>
<path id="Vector_4" d="M14.6303 36.9881L9.92281 41.5962L7.8178 39.5356C7.37089 39.0984 6.64649 39.0984 6.19954 39.5356C5.75274 39.973 5.75274 40.6821 6.19954 41.1196L9.11366 43.9721C9.33711 44.1908 9.62991 44.3001 9.92281 44.3001C10.2157 44.3001 10.5085 44.1908 10.732 43.9721L16.2486 38.5721C16.6954 38.1347 16.6954 37.4256 16.2486 36.9881C15.8017 36.5509 15.0773 36.5509 14.6303 36.9881Z" fill="#203281"/>
<path id="Vector_5" d="M39.4677 39.3599H20.5067C19.8747 39.3599 19.3625 39.8613 19.3625 40.4799C19.3625 41.0985 19.8747 41.5999 20.5067 41.5999H39.4677C40.0997 41.5999 40.6119 41.0985 40.6119 40.4799C40.6119 39.8613 40.0997 39.3599 39.4677 39.3599Z" fill="#203281"/>
<path id="Vector_6" d="M14.6303 49.6748L9.92281 54.2829L7.8178 52.2223C7.37089 51.7851 6.64649 51.7851 6.19954 52.2223C5.75274 52.6598 5.75274 53.3689 6.19954 53.8064L9.11366 56.6589C9.33711 56.8775 9.62991 56.9868 9.92281 56.9868C10.2157 56.9868 10.5085 56.8775 10.732 56.6589L16.2486 51.2589C16.6954 50.8213 16.6954 50.1123 16.2486 49.6748C15.8017 49.2376 15.0773 49.2376 14.6303 49.6748Z" fill="#203281"/>
<path id="Vector_7" d="M39.4677 52.0469H20.5067C19.8747 52.0469 19.3625 52.5483 19.3625 53.1669C19.3625 53.7855 19.8747 54.2869 20.5067 54.2869H39.4677C40.0997 54.2869 40.6119 53.7855 40.6119 53.1669C40.6119 52.5483 40.0997 52.0469 39.4677 52.0469Z" fill="#203281"/>
</g>
</svg>
